# xmcd CD database file generated by Grip 2.5
# 
# Track frame offsets:
#       150
#       18473
#       34585
#       57028
#       71908
#       86135
#       104345
#       123960
#       139685
#       162990
#       184178
#       203433
#       217530
#       230608
#       242583
# 
# Disc length: 3308 seconds
# 
# Revision: 3
# Processed by: cddbd v1.4b41PL1 Copyright (c) Steve Scherf et al.
# Submitted via: Grip 2.5
# 
DISCID=c50cea0f
DTITLE=Geyer Street Sheiks - "Great Dream"
DYEAR=1900
DGENRE=
TTITLE0=Sixteen Tons
TTITLE1=Cakewalk
TTITLE2=Oh Daddy
TTITLE3=Great Dream from Heaven
TTITLE4=Me and My Chauffeur Blues
TTITLE5=Payday
TTITLE6=World of Trouble
TTITLE7=Who's been Here?
TTITLE8=I've Got a Feelin' I'm Fallin'
TTITLE9=The Devil Chased Me Round
TTITLE10=Dimming of the Day
TTITLE11=Dance Around in Your Bones
TTITLE12=What Have You Done?
TTITLE13=Travelers' Prayer
TTITLE14=Sweet Sunny South
EXTD=
EXTT0=
EXTT1=
EXTT2=
EXTT3=
EXTT4=
EXTT5=
EXTT6=
EXTT7=
EXTT8=
EXTT9=
EXTT10=
EXTT11=
EXTT12=
EXTT13=
EXTT14=
PLAYORDER=
